# xmcd
#
# Track frame offsets: 
#        225
#        8202
#        14287
#        28290
#        41913
#        57123
#        65752
#        75860
#        87561
#        103629
#        112275
#        129300
#        138619
#        149671
#        161726
#        170476
#        180915
#        193063
#        203638
#        219758
#
# Disc length: 3056 seconds
#
# Revision: 0
# Processed by: cddbd v1.5.2PL0 Copyright (c) Steve Scherf et al.
# Submitted via: ExactAudioCopy v0.95b4
#
DISCID=210bed14
DTITLE=Various Artist - Tiroler Weihnacht
DYEAR=1998
DGENRE=Country
TTITLE0=Ein´großer Freud
TTITLE1=Schean stad
TTITLE2=Auf amal isch Winta woarn
TTITLE3=Almando Nr. 12
TTITLE4=Das Gebot ist schon ausgangen
TTITLE5=Menuett in C
TTITLE6=Maria geht über´s Gebirge
TTITLE7=Marienmenuett
TTITLE8=Nun es nahen sich die Stunden
TTITLE9=Anklöpflweise
TTITLE10=Wer klopfet an
TTITLE11=Pongauer Hirtenweis´
TTITLE12=Geh Hansl pack dei Pinggei z´samm
TTITLE13=Schwegel-Polka
TTITLE14=Lenzei und Loisei
TTITLE15=Grünberg Boarischer
TTITLE16=Ihr Brüder von Bethlehem
TTITLE17=Es wird scho glei dumpa
TTITLE18=Stille Nacht, heilige Nacht
TTITLE19=Andachtsjodler - Sterzinger Mettenjodler
EXTD=
EXTT0=
EXTT1=
EXTT2=
EXTT3=
EXTT4=
EXTT5=
EXTT6=
EXTT7=
EXTT8=
EXTT9=
EXTT10=
EXTT11=
EXTT12=
EXTT13=
EXTT14=
EXTT15=
EXTT16=
EXTT17=
EXTT18=
EXTT19=
PLAYORDER=
